<?xml version="1.0" encoding="utf-8"?>
<!-- Generator: Adobe Illustrator 27.5.0, SVG Export Plug-In . SVG Version: 6.00 Build 0)  -->
<svg version="1.1" xmlns="http://www.w3.org/2000/svg" xmlns:xlink="http://www.w3.org/1999/xlink" x="0px" y="0px"
	 viewBox="0 0 500 500" style="enable-background:new 0 0 500 500;" xml:space="preserve">
<g id="BACKGROUND">
	<rect style="fill:#0C1A3C;" width="500" height="500"/>
</g>
<g id="OBJECT">
	<g>
		<path style="fill:#268EDC;" d="M250,483.034L250,483.034C121.299,483.034,16.966,378.701,16.966,250v0
			C16.966,121.299,121.299,16.966,250,16.966h0c128.701,0,233.033,104.333,233.033,233.034v0
			C483.034,378.701,378.701,483.034,250,483.034z"/>
		<g>
			<g>
				<g>
					<path style="opacity:0.3;fill:#326C92;" d="M430.668,318.69L48.238,294.909c-5.793-0.36-10.198-5.349-9.837-11.142
						l15.33-246.532c0.36-5.793,5.349-10.198,11.142-9.837l382.43,23.781c5.793,0.36,10.198,5.349,9.837,11.142l-15.33,246.532
						C441.45,314.646,436.461,319.05,430.668,318.69z"/>
					<path style="fill:#9ABAD3;" d="M425.188,311.126l-382.43-23.781c-5.793-0.36-10.198-5.349-9.837-11.142L48.25,29.671
						c0.36-5.793,5.349-10.197,11.142-9.837l382.431,23.781c5.793,0.36,10.197,5.349,9.837,11.142l-15.33,246.532
						C435.969,307.082,430.981,311.487,425.188,311.126z"/>
					<g style="opacity:0.8;">
						<g>
							
								<line style="fill:none;stroke:#231F20;stroke-linecap:round;stroke-linejoin:round;stroke-miterlimit:10;" x1="78.234" y1="47.02" x2="177.402" y2="53.186"/>
							<g>
								
									<text transform="matrix(0.9981 0.0621 -0.0621 0.9981 79.0405 43.2833)" style="fill:#1D0E35; font-family:'Journal'; font-size:7.1538px;">SCENE</text>
							</g>
						</g>
						<g>
							
								<line style="fill:none;stroke:#231F20;stroke-linecap:round;stroke-linejoin:round;stroke-miterlimit:10;" x1="306.884" y1="61.238" x2="406.052" y2="67.405"/>
							<g>
								
									<text transform="matrix(0.9981 0.0621 -0.0621 0.9981 307.6911 57.5008)" style="fill:#1D0E35; font-family:'Journal'; font-size:7.1538px;">PAGE</text>
							</g>
						</g>
						<g>
							<g>
								
									<line style="fill:none;stroke:#231F20;stroke-linecap:round;stroke-linejoin:round;stroke-miterlimit:10;" x1="69.087" y1="194.113" x2="168.255" y2="200.28"/>
								<g>
									
										<text transform="matrix(0.9981 0.0621 -0.0621 0.9981 70.185 185.7003)" style="fill:#1D0E35; font-family:'Journal'; font-size:7.1538px;">ACTION</text>
								</g>
								
									<line style="fill:none;stroke:#231F20;stroke-linecap:round;stroke-linejoin:round;stroke-miterlimit:10;" x1="68.41" y1="204.997" x2="167.578" y2="211.164"/>
							</g>
							<g>
								
									<line style="fill:none;stroke:#231F20;stroke-linecap:round;stroke-linejoin:round;stroke-miterlimit:10;" x1="66.991" y1="227.814" x2="166.159" y2="233.981"/>
								<g>
									
										<text transform="matrix(0.9981 0.0621 -0.0621 0.9981 68.0895 219.4012)" style="fill:#1D0E35; font-family:'Journal'; font-size:7.1538px;">DIALOGUE</text>
								</g>
								
									<line style="fill:none;stroke:#231F20;stroke-linecap:round;stroke-linejoin:round;stroke-miterlimit:10;" x1="66.314" y1="238.698" x2="165.482" y2="244.865"/>
							</g>
							<g>
								
									<line style="fill:none;stroke:#231F20;stroke-linecap:round;stroke-linejoin:round;stroke-miterlimit:10;" x1="64.896" y1="261.515" x2="164.064" y2="267.682"/>
								<g>
									
										<text transform="matrix(0.9981 0.0621 -0.0621 0.9981 65.994 253.1017)" style="fill:#1D0E35; font-family:'Journal'; font-size:7.1538px;">FX</text>
								</g>
								
									<line style="fill:none;stroke:#231F20;stroke-linecap:round;stroke-linejoin:round;stroke-miterlimit:10;" x1="64.219" y1="272.399" x2="163.387" y2="278.566"/>
							</g>
							<g>
								<g>
									
										<rect x="73.159" y="91.16" transform="matrix(0.9981 0.0621 -0.0621 0.9981 8.3316 -7.6285)" style="fill:#FFFFFF;stroke:#231F20;stroke-linecap:round;stroke-linejoin:round;stroke-miterlimit:10;" width="107.599" height="78.276"/>
									
										<rect x="75.884" y="81.709" transform="matrix(0.9981 0.0621 -0.0621 0.9981 5.4465 -5.1373)" style="fill:#FFFFFF;stroke:#231F20;stroke-linecap:round;stroke-linejoin:round;stroke-miterlimit:10;" width="19.064" height="6.786"/>
								</g>
								<g>
									
										<text transform="matrix(0.9981 0.0621 -0.0621 0.9981 77.0102 75.936)" style="fill:#1D0E35; font-family:'Journal'; font-size:7.1538px;">SHOT#</text>
								</g>
							</g>
						</g>
						<g>
							<g>
								
									<line style="fill:none;stroke:#231F20;stroke-linecap:round;stroke-linejoin:round;stroke-miterlimit:10;" x1="186.154" y1="201.393" x2="285.321" y2="207.559"/>
								<g>
									
										<text transform="matrix(0.9981 0.0621 -0.0621 0.9981 187.2516 192.9795)" style="fill:#1D0E35; font-family:'Journal'; font-size:7.1538px;">ACTION</text>
								</g>
								
									<line style="fill:none;stroke:#231F20;stroke-linecap:round;stroke-linejoin:round;stroke-miterlimit:10;" x1="185.477" y1="212.277" x2="284.645" y2="218.444"/>
							</g>
							<g>
								
									<line style="fill:none;stroke:#231F20;stroke-linecap:round;stroke-linejoin:round;stroke-miterlimit:10;" x1="184.058" y1="235.094" x2="283.226" y2="241.26"/>
								<g>
									
										<text transform="matrix(0.9981 0.0621 -0.0621 0.9981 185.1561 226.6804)" style="fill:#1D0E35; font-family:'Journal'; font-size:7.1538px;">DIALOGUE</text>
								</g>
								
									<line style="fill:none;stroke:#231F20;stroke-linecap:round;stroke-linejoin:round;stroke-miterlimit:10;" x1="183.381" y1="245.978" x2="282.549" y2="252.145"/>
							</g>
							<g>
								
									<line style="fill:none;stroke:#231F20;stroke-linecap:round;stroke-linejoin:round;stroke-miterlimit:10;" x1="181.962" y1="268.795" x2="281.13" y2="274.961"/>
								<g>
									
										<text transform="matrix(0.9981 0.0621 -0.0621 0.9981 183.0606 260.3809)" style="fill:#1D0E35; font-family:'Journal'; font-size:7.1538px;">FX</text>
								</g>
								
									<line style="fill:none;stroke:#231F20;stroke-linecap:round;stroke-linejoin:round;stroke-miterlimit:10;" x1="181.285" y1="279.679" x2="280.453" y2="285.845"/>
							</g>
							<g>
								<g>
									
										<rect x="190.226" y="98.439" transform="matrix(0.9981 0.0621 -0.0621 0.9981 9.009 -14.8799)" style="fill:#FFFFFF;stroke:#231F20;stroke-linecap:round;stroke-linejoin:round;stroke-miterlimit:10;" width="107.599" height="78.276"/>
									
										<rect x="192.951" y="88.988" transform="matrix(0.9981 0.0621 -0.0621 0.9981 6.1239 -12.3888)" style="fill:#FFFFFF;stroke:#231F20;stroke-linecap:round;stroke-linejoin:round;stroke-miterlimit:10;" width="19.064" height="6.785"/>
								</g>
								<g>
									
										<text transform="matrix(0.9981 0.0621 -0.0621 0.9981 194.0768 83.2152)" style="fill:#1D0E35; font-family:'Journal'; font-size:7.1538px;">SHOT#</text>
								</g>
							</g>
						</g>
						<g>
							<g>
								
									<line style="fill:none;stroke:#231F20;stroke-linecap:round;stroke-linejoin:round;stroke-miterlimit:10;" x1="303.22" y1="208.672" x2="402.388" y2="214.839"/>
								<g>
									
										<text transform="matrix(0.9981 0.0621 -0.0621 0.9981 304.3182 200.2587)" style="fill:#1D0E35; font-family:'Journal'; font-size:7.1538px;">ACTION</text>
								</g>
								
									<line style="fill:none;stroke:#231F20;stroke-linecap:round;stroke-linejoin:round;stroke-miterlimit:10;" x1="302.543" y1="219.557" x2="401.711" y2="225.723"/>
							</g>
							<g>
								
									<line style="fill:none;stroke:#231F20;stroke-linecap:round;stroke-linejoin:round;stroke-miterlimit:10;" x1="301.124" y1="242.373" x2="400.292" y2="248.54"/>
								<g>
									
										<text transform="matrix(0.9981 0.0621 -0.0621 0.9981 302.2227 233.9596)" style="fill:#1D0E35; font-family:'Journal'; font-size:7.1538px;">DIALOGUE</text>
								</g>
								
									<line style="fill:none;stroke:#231F20;stroke-linecap:round;stroke-linejoin:round;stroke-miterlimit:10;" x1="300.448" y1="253.258" x2="399.615" y2="259.424"/>
							</g>
							<g>
								
									<line style="fill:none;stroke:#231F20;stroke-linecap:round;stroke-linejoin:round;stroke-miterlimit:10;" x1="299.029" y1="276.074" x2="398.197" y2="282.241"/>
								<g>
									
										<text transform="matrix(0.9981 0.0621 -0.0621 0.9981 300.1272 267.6601)" style="fill:#1D0E35; font-family:'Journal'; font-size:7.1538px;">FX</text>
								</g>
								
									<line style="fill:none;stroke:#231F20;stroke-linecap:round;stroke-linejoin:round;stroke-miterlimit:10;" x1="298.352" y1="286.958" x2="397.52" y2="293.125"/>
							</g>
							<g>
								<g>
									
										<rect x="307.292" y="105.719" transform="matrix(0.9981 0.0621 -0.0621 0.9981 9.6866 -22.1318)" style="fill:#FFFFFF;stroke:#231F20;stroke-linecap:round;stroke-linejoin:round;stroke-miterlimit:10;" width="107.599" height="78.276"/>
									
										<rect x="310.017" y="96.268" transform="matrix(0.9981 0.0621 -0.0621 0.9981 6.8014 -19.6405)" style="fill:#FFFFFF;stroke:#231F20;stroke-linecap:round;stroke-linejoin:round;stroke-miterlimit:10;" width="19.064" height="6.785"/>
								</g>
								<g>
									
										<text transform="matrix(0.9981 0.0621 -0.0621 0.9981 311.1433 90.4944)" style="fill:#1D0E35; font-family:'Journal'; font-size:7.1538px;">SHOT#</text>
								</g>
							</g>
						</g>
					</g>
				</g>
			</g>
			<g>
				<g>
					<path style="opacity:0.3;fill:#326C92;" d="M445.443,352.258L63.013,328.477c-5.793-0.36-10.197-5.349-9.837-11.142
						l15.33-246.532c0.36-5.793,5.349-10.197,11.142-9.837l382.43,23.781c5.793,0.36,10.198,5.349,9.837,11.142l-15.33,246.532
						C456.225,348.214,451.236,352.619,445.443,352.258z"/>
					<path style="fill:#FFFFFF;" d="M439.963,344.694L57.532,320.914c-5.793-0.36-10.197-5.349-9.837-11.142l15.33-246.532
						c0.36-5.793,5.349-10.197,11.142-9.837l382.43,23.781c5.793,0.36,10.198,5.349,9.837,11.142l-15.33,246.532
						C450.744,340.651,445.756,345.055,439.963,344.694z"/>
					<path style="opacity:0.3;fill:#326C92;" d="M273.681,70.049c-0.139,2.278-1.16,4.519-3.006,6.148l-20.166,17.805
						c-2.408,2.127-5.468,3.083-8.439,2.896c-2.971-0.182-5.889-1.51-8.014-3.919c-2.127-2.407-3.083-5.468-2.896-8.438
						c0.182-2.971,1.51-5.889,3.919-8.014l10.378-9.162c0.828-0.731,2.091-0.653,2.823,0.175c0.731,0.828,0.652,2.092-0.176,2.823
						l-10.378,9.163c-1.589,1.404-2.45,3.302-2.574,5.264c-0.12,1.963,0.499,3.952,1.903,5.543c1.403,1.589,3.301,2.45,5.264,2.574
						c1.962,0.12,3.952-0.499,5.543-1.902l20.166-17.805c1.027-0.908,1.581-2.13,1.662-3.398c0.076-1.269-0.321-2.549-1.228-3.577
						c-0.279-0.316-0.595-0.571-0.925-0.797l5.342,0.332C273.505,67.119,273.773,68.598,273.681,70.049z M240.961,80.919
						c-0.097,1.525,0.397,3.107,1.491,4.344c1.091,1.238,2.599,1.925,4.125,2.017c1.526,0.097,3.107-0.397,4.344-1.49l12.318-10.876
						c0.828-0.731,0.906-1.995,0.176-2.823c-0.731-0.828-1.995-0.907-2.823-0.175l0,0l-12.318,10.876
						c-0.419,0.369-0.931,0.527-1.448,0.497c-0.518-0.035-1.005-0.255-1.374-0.672c-0.37-0.42-0.527-0.931-0.497-1.448
						c0.035-0.518,0.254-1.005,0.672-1.375l15.861-14.004c0.316-0.278,0.66-0.492,1.016-0.676l-5.88-0.366l-13.644,12.046
						C241.74,77.885,241.054,79.393,240.961,80.919z"/>
					<g>
						<g>
							
								<line style="fill:none;stroke:#231F20;stroke-linecap:round;stroke-linejoin:round;stroke-miterlimit:10;" x1="93.009" y1="80.588" x2="192.177" y2="86.755"/>
							<g>
								
									<text transform="matrix(0.9981 0.0621 -0.0621 0.9981 93.8154 76.8515)" style="fill:#1D0E35; font-family:'Journal'; font-size:7.1538px;">SCENE</text>
							</g>
						</g>
						<g>
							
								<line style="fill:none;stroke:#231F20;stroke-linecap:round;stroke-linejoin:round;stroke-miterlimit:10;" x1="321.659" y1="94.806" x2="420.827" y2="100.973"/>
							<g>
								
									<text transform="matrix(0.9981 0.0621 -0.0621 0.9981 322.466 91.069)" style="fill:#1D0E35; font-family:'Journal'; font-size:7.1538px; letter-spacing:1;">PAGE</text>
							</g>
						</g>
						<g>
							<g>
								
									<line style="fill:none;stroke:#231F20;stroke-linecap:round;stroke-linejoin:round;stroke-miterlimit:10;" x1="83.862" y1="227.681" x2="183.03" y2="233.848"/>
								<g>
									
										<text transform="matrix(0.9981 0.0621 -0.0621 0.9981 84.9599 219.2685)" style="fill:#1D0E35; font-family:'Journal'; font-size:7.1538px; letter-spacing:1;">ACTION</text>
								</g>
								
									<line style="fill:none;stroke:#231F20;stroke-linecap:round;stroke-linejoin:round;stroke-miterlimit:10;" x1="83.185" y1="238.566" x2="182.353" y2="244.732"/>
							</g>
							<g>
								
									<line style="fill:none;stroke:#231F20;stroke-linecap:round;stroke-linejoin:round;stroke-miterlimit:10;" x1="81.766" y1="261.382" x2="180.934" y2="267.549"/>
								<g>
									
										<text transform="matrix(0.9981 0.0621 -0.0621 0.9981 82.8644 252.9695)" style="fill:#1D0E35; font-family:'Journal'; font-size:7.1538px; letter-spacing:1;">DIALOGUE</text>
								</g>
								
									<line style="fill:none;stroke:#231F20;stroke-linecap:round;stroke-linejoin:round;stroke-miterlimit:10;" x1="81.089" y1="272.267" x2="180.257" y2="278.433"/>
							</g>
							<g>
								
									<line style="fill:none;stroke:#231F20;stroke-linecap:round;stroke-linejoin:round;stroke-miterlimit:10;" x1="79.671" y1="295.083" x2="178.838" y2="301.25"/>
								<g>
									
										<text transform="matrix(0.9981 0.0621 -0.0621 0.9981 80.7689 286.6699)" style="fill:#1D0E35; font-family:'Journal'; font-size:7.1538px; letter-spacing:1;">FX</text>
								</g>
								
									<line style="fill:none;stroke:#231F20;stroke-linecap:round;stroke-linejoin:round;stroke-miterlimit:10;" x1="78.994" y1="305.967" x2="178.162" y2="312.134"/>
							</g>
							<g>
								<g>
									<path style="fill:#FFFFFF;stroke:#231F20;stroke-linecap:round;stroke-linejoin:round;stroke-miterlimit:10;" d="
										M189.614,206.057L88.995,199.8c-1.87-0.116-3.292-1.727-3.176-3.597l4.648-74.739l104.005,6.467
										c1.87,0.116,3.292,1.727,3.176,3.597l-4.437,71.352C193.095,204.751,191.484,206.173,189.614,206.057z"/>
									<path style="fill:#FFFFFF;stroke:#231F20;stroke-linecap:round;stroke-linejoin:round;stroke-miterlimit:10;" d="
										M106.529,115.665l-12.255-0.762c-1.87-0.116-3.48,1.305-3.597,3.176l-0.21,3.386l19.027,1.183l0.211-3.386
										C109.821,117.391,108.399,115.781,106.529,115.665z"/>
								</g>
								<g>
									
										<text transform="matrix(0.9981 0.0621 -0.0621 0.9981 91.7851 109.5042)" style="fill:#1D0E35; font-family:'Journal'; font-size:7.1538px; letter-spacing:1;">SHOT#</text>
								</g>
							</g>
						</g>
						<g>
							<g>
								
									<line style="fill:none;stroke:#231F20;stroke-linecap:round;stroke-linejoin:round;stroke-miterlimit:10;" x1="200.928" y1="234.961" x2="300.096" y2="241.128"/>
								<g>
									
										<text transform="matrix(0.9981 0.0621 -0.0621 0.9981 202.0265 226.5477)" style="fill:#1D0E35; font-family:'Journal'; font-size:7.1538px; letter-spacing:1;">ACTION</text>
								</g>
								
									<line style="fill:none;stroke:#231F20;stroke-linecap:round;stroke-linejoin:round;stroke-miterlimit:10;" x1="200.251" y1="245.845" x2="299.419" y2="252.012"/>
							</g>
							<g>
								
									<line style="fill:none;stroke:#231F20;stroke-linecap:round;stroke-linejoin:round;stroke-miterlimit:10;" x1="198.833" y1="268.662" x2="298.001" y2="274.828"/>
								<g>
									
										<text transform="matrix(0.9981 0.0621 -0.0621 0.9981 199.931 260.2487)" style="fill:#1D0E35; font-family:'Journal'; font-size:7.1538px; letter-spacing:1;">DIALOGUE</text>
								</g>
								
									<line style="fill:none;stroke:#231F20;stroke-linecap:round;stroke-linejoin:round;stroke-miterlimit:10;" x1="198.156" y1="279.546" x2="297.324" y2="285.713"/>
							</g>
							<g>
								
									<line style="fill:none;stroke:#231F20;stroke-linecap:round;stroke-linejoin:round;stroke-miterlimit:10;" x1="196.737" y1="302.363" x2="295.905" y2="308.53"/>
								<g>
									
										<text transform="matrix(0.9981 0.0621 -0.0621 0.9981 197.8355 293.9491)" style="fill:#1D0E35; font-family:'Journal'; font-size:7.1538px; letter-spacing:1;">FX</text>
								</g>
								
									<line style="fill:none;stroke:#231F20;stroke-linecap:round;stroke-linejoin:round;stroke-miterlimit:10;" x1="196.06" y1="313.247" x2="295.228" y2="319.414"/>
							</g>
							<g>
								<g>
									<path style="fill:#FFFFFF;stroke:#231F20;stroke-linecap:round;stroke-linejoin:round;stroke-miterlimit:10;" d="
										M306.681,213.337l-100.619-6.257c-1.87-0.116-3.292-1.727-3.176-3.597l4.647-74.739l104.005,6.467
										c1.87,0.116,3.292,1.727,3.176,3.597l-4.437,71.353C310.161,212.031,308.551,213.453,306.681,213.337z"/>
									<path style="fill:#FFFFFF;stroke:#231F20;stroke-linecap:round;stroke-linejoin:round;stroke-miterlimit:10;" d="
										M223.596,122.944l-12.255-0.762c-1.87-0.116-3.48,1.306-3.597,3.176l-0.211,3.386l19.027,1.183l0.21-3.386
										C226.887,124.671,225.466,123.061,223.596,122.944z"/>
								</g>
								<g>
									
										<text transform="matrix(0.9981 0.0621 -0.0621 0.9981 208.8517 116.7834)" style="fill:#1D0E35; font-family:'Journal'; font-size:7.1538px; letter-spacing:1;">SHOT#</text>
								</g>
							</g>
						</g>
						<g>
							<g>
								
									<line style="fill:none;stroke:#231F20;stroke-linecap:round;stroke-linejoin:round;stroke-miterlimit:10;" x1="317.995" y1="242.241" x2="417.163" y2="248.407"/>
								<g>
									
										<text transform="matrix(0.9981 0.0621 -0.0621 0.9981 319.0931 233.8269)" style="fill:#1D0E35; font-family:'Journal'; font-size:7.1538px; letter-spacing:1;">ACTION</text>
								</g>
								
									<line style="fill:none;stroke:#231F20;stroke-linecap:round;stroke-linejoin:round;stroke-miterlimit:10;" x1="317.318" y1="253.125" x2="416.486" y2="259.292"/>
							</g>
							<g>
								
									<line style="fill:none;stroke:#231F20;stroke-linecap:round;stroke-linejoin:round;stroke-miterlimit:10;" x1="315.899" y1="275.942" x2="415.067" y2="282.108"/>
								<g>
									
										<text transform="matrix(0.9981 0.0621 -0.0621 0.9981 316.9976 267.5279)" style="fill:#1D0E35; font-family:'Journal'; font-size:7.1538px; letter-spacing:1;">DIALOGUE</text>
								</g>
								
									<line style="fill:none;stroke:#231F20;stroke-linecap:round;stroke-linejoin:round;stroke-miterlimit:10;" x1="315.222" y1="286.826" x2="414.39" y2="292.992"/>
							</g>
							<g>
								
									<line style="fill:none;stroke:#231F20;stroke-linecap:round;stroke-linejoin:round;stroke-miterlimit:10;" x1="313.803" y1="309.642" x2="412.971" y2="315.809"/>
								<g>
									
										<text transform="matrix(0.9981 0.0621 -0.0621 0.9981 314.9021 301.2283)" style="fill:#1D0E35; font-family:'Journal'; font-size:7.1538px; letter-spacing:1;">FX</text>
								</g>
								
									<line style="fill:none;stroke:#231F20;stroke-linecap:round;stroke-linejoin:round;stroke-miterlimit:10;" x1="313.127" y1="320.527" x2="412.295" y2="326.693"/>
							</g>
							<g>
								<g>
									<path style="fill:#FFFFFF;stroke:#231F20;stroke-linecap:round;stroke-linejoin:round;stroke-miterlimit:10;" d="
										M423.747,220.616l-100.619-6.257c-1.87-0.116-3.292-1.727-3.176-3.597l4.647-74.739l104.005,6.467
										c1.87,0.116,3.292,1.727,3.176,3.597l-4.437,71.353C427.228,219.311,425.617,220.732,423.747,220.616z"/>
									<path style="fill:#FFFFFF;stroke:#231F20;stroke-linecap:round;stroke-linejoin:round;stroke-miterlimit:10;" d="
										M340.662,130.224l-12.255-0.762c-1.87-0.116-3.48,1.305-3.597,3.176l-0.211,3.386l19.027,1.183l0.211-3.386
										C343.954,131.951,342.532,130.34,340.662,130.224z"/>
								</g>
								<g>
									
										<text transform="matrix(0.9981 0.0621 -0.0621 0.9981 325.9182 124.0626)" style="fill:#1D0E35; font-family:'Journal'; font-size:7.1538px; letter-spacing:1;">SHOT#</text>
								</g>
							</g>
						</g>
					</g>
				</g>
			</g>
			<g>
				<path style="fill:#268EDC;" d="M260.592,70.082l-12.318,10.876c-0.419,0.369-0.931,0.527-1.448,0.497
					c-0.518-0.035-1.005-0.255-1.374-0.672c-0.369-0.42-0.527-0.931-0.498-1.449c0.035-0.518,0.255-1.005,0.672-1.374l15.861-14.004
					c1.029-0.907,2.308-1.304,3.578-1.228c1.268,0.081,2.489,0.634,3.398,1.662c0.907,1.028,1.304,2.308,1.228,3.577
					c-0.081,1.268-0.635,2.489-1.662,3.398L247.861,89.17c-1.59,1.403-3.581,2.022-5.543,1.902c-1.962-0.124-3.86-0.985-5.264-2.574
					c-1.403-1.591-2.022-3.58-1.903-5.543c0.124-1.962,0.985-3.86,2.574-5.264l10.378-9.163c0.828-0.731,0.906-1.995,0.176-2.823
					c-0.731-0.828-1.995-0.907-2.823-0.176l-10.378,9.162c-2.409,2.125-3.737,5.044-3.919,8.015
					c-0.187,2.971,0.769,6.031,2.896,8.438c2.125,2.409,5.043,3.736,8.014,3.919c2.97,0.187,6.031-0.769,8.438-2.896l20.166-17.805
					c1.847-1.63,2.867-3.87,3.006-6.148c0.144-2.277-0.591-4.628-2.221-6.473c-1.63-1.847-3.871-2.867-6.148-3.006
					c-2.277-0.144-4.628,0.59-6.473,2.222l-15.86,14.003c-1.238,1.091-1.925,2.599-2.017,4.125
					c-0.097,1.525,0.397,3.107,1.491,4.344c1.091,1.238,2.599,1.924,4.125,2.017c1.526,0.097,3.107-0.397,4.343-1.49l12.318-10.876
					c0.828-0.731,0.907-1.995,0.175-2.823C262.684,69.429,261.42,69.351,260.592,70.082L260.592,70.082z"/>
			</g>
		</g>
		<g>
			<g>
				<g>
					<g>
						<g>
							<path style="fill:#2475BA;" d="M419.36,415.508c-3.883,2.695-14.468-2.682-16.818-10.409
								c-0.901-2.956-1.162-4.823-1.344-6.389c-0.3-2.532-0.379-4.275-2.565-8.536c-3.537-6.891-0.365-6.637-3.132-11.283
								c-2.76-4.646-1.618-7.609-2.16-12.536c-0.437-3.948-2.898-8.223-2.265-10.605c0.157-0.594,0.509-1.07,1.129-1.39
								c3.113-1.625,5.501,5.456,7.74,7.786c2.238,2.33,7.909,4.686,9.339,11.303c0.581,2.708,2.134,4.046,3.883,5.417
								c2.506,1.971,5.417,4,6.441,10.272C421.35,399.767,430.924,407.487,419.36,415.508z"/>
							<path style="opacity:0.3;fill:#326C92;" d="M413.167,378.864c0,0-3.563-0.738-5.038-4.327
								c-1.462-3.589-2.526-5.958-7.009-8.973c-4.49-3.015-5.221-8.321-7.753-9.711c-0.868-0.47-1.645-0.405-2.291-0.104
								c0.157-0.594,0.509-1.07,1.129-1.39c3.113-1.625,5.501,5.456,7.74,7.786c2.238,2.33,7.909,4.686,9.339,11.303
								C409.864,376.156,411.418,377.494,413.167,378.864z"/>
							<path style="opacity:0.3;fill:#326C92;" d="M419.36,415.508c-3.883,2.695-14.468-2.682-16.818-10.409
								c-0.901-2.956-1.162-4.823-1.344-6.389c8.164,7.374,14.997,7.694,14.246-2.8c-0.535-7.472,1.634-12.291-2.277-17.046
								c2.506,1.971,5.417,4,6.441,10.272C421.35,399.767,430.924,407.487,419.36,415.508z"/>
						</g>
						<path style="fill:#E2FBF6;" d="M426.503,438.659c0,0-6.22-32.629-27.508-69.706c20.129,37.719,25.335,70.525,25.335,70.525
							L426.503,438.659z"/>
					</g>
					<g>
						<path style="fill:#2475BA;" d="M414.504,427.059c-5.266,2.65-7.12-3.12-14.821-3.766c-7.701-0.646-9.463-2.264-11.694-7.185
							c-2.154-4.744-6.285-3.1-8.556-7.903c-0.078-0.17-0.157-0.346-0.235-0.535c-1.697-4.222-4.66-7.055-5.364-8.869
							c-0.007,0-0.007,0-0.007,0c-0.202-0.529-0.215-0.972,0.059-1.338c2.115-2.826,13.137,0.731,21.51,2.937
							c8.379,2.206,10.846,6.807,14.905,10.194c1.873,1.56,4.033,4.62,5.299,7.727l0.007,0.013c0.574,1.403,0.966,2.819,1.057,4.105
							C416.821,424.468,416.24,426.184,414.504,427.059z"/>
						<path style="opacity:0.3;fill:#326C92;" d="M415.601,418.321c-1.749-1.703-8.262-8.073-11.629-11.721
							c-3.916-4.242-12.399-5.547-21.699-7.916c-5.462-1.39-7.603-0.698-8.438,0.117c-0.007,0-0.007,0-0.007,0
							c-0.202-0.529-0.215-0.972,0.059-1.338c2.115-2.826,13.137,0.731,21.51,2.937c8.379,2.206,10.846,6.807,14.905,10.194
							C412.175,412.154,414.335,415.214,415.601,418.321z"/>
						<path style="opacity:0.3;fill:#326C92;" d="M414.504,427.059c-5.266,2.65-7.12-3.12-14.821-3.766
							c-7.701-0.646-9.463-2.264-11.694-7.185c-2.154-4.744-6.285-3.1-8.556-7.903c2.089,0.816,4.986,1.429,8.549,0.92
							c7.42-1.064,11.662,3.505,16.152,7.831c4.248,4.092,8.993,6.356,12.53,5.482C416.821,424.468,416.24,426.184,414.504,427.059z
							"/>
						<path style="fill:#E2FBF6;" d="M422.295,438.82c-10.66-24.665-38.991-37.403-38.991-37.403s27.829,13.799,37.551,38.849
							L422.295,438.82z"/>
					</g>
					<g>
						<path style="fill:#2475BA;" d="M437.164,415.512c3.885,2.696,14.467-2.676,16.819-10.403
							c2.352-7.728,0.375-8.027,3.917-14.921c3.542-6.894,0.37-6.638,3.137-11.284c2.767-4.646,1.624-7.606,2.169-12.538
							c0.545-4.932,4.249-10.365,1.137-11.991c-3.112-1.626-5.5,5.45-7.741,7.779c-2.241,2.329-7.912,4.684-9.345,11.299
							c-1.433,6.615-8.582,5.048-10.329,15.683C435.18,399.772,425.601,407.489,437.164,415.512z"/>
						<path style="fill:#E2FBF6;" d="M430.011,438.659c0,0,6.233-32.626,27.537-69.694c-20.145,37.711-25.364,70.514-25.364,70.514
							L430.011,438.659z"/>
					</g>
					<g>
						<path style="fill:#2475BA;" d="M482.648,397.484c1.199,1.6-3.115,4.747-5.32,10.206c-2.205,5.459-6.56,3.52-8.794,8.436
							c-2.235,4.916-3.997,6.538-11.696,7.18c-7.699,0.642-9.56,6.409-14.826,3.758c-5.266-2.651,0.151-13.08,4.213-16.463
							c4.062-3.383,6.532-7.985,14.907-10.189C469.507,398.208,480.531,394.66,482.648,397.484z"/>
						<path style="fill:#E2FBF6;" d="M434.219,438.822c10.67-24.66,39.006-37.387,39.006-37.387s-27.835,13.788-37.566,38.834
							L434.219,438.822z"/>
					</g>
					<g>
						<path style="fill:#2475BA;" d="M429.449,412.963c-3.087,0.085-5.541-0.692-7.479-2.375c-2.173-1.893-3.7-4.934-4.731-9.195
							c-1.951-8.059,2.604-11.035-0.692-19.493c-3.296-8.458,0.411-10.807-0.189-17.594c-0.607-6.787-2.715-10.063-0.476-16.909
							c2.206-6.774,0.888-15.081,3.759-16.406c0.026-0.02,0.059-0.033,0.091-0.046c3.237-1.286,5.195,2.708,6.063,5.156
							c0.418,1.181,0.959,2.323,1.632,3.387c3.987,6.311,3.028,9.56,3.935,14.762c-0.013,0.007-0.007,0.013,0.007,0.02
							c0.411,2.356,1.214,5.117,3.035,8.751c4.033,8.047,2.239,12.38,2.16,18.025c-0.052,3.002,0.392,6.376,2.447,10.879
							C444.928,404.89,435.995,412.78,429.449,412.963z"/>
						<path style="opacity:0.3;fill:#326C92;" d="M431.361,354.248c-0.933-2.46-1.579-5.064-1.938-7.361
							c-0.894-5.795-4.079-5.873-4.979-10.526c-0.653-3.4-2.656-5.443-4.803-5.371c0.026-0.02,0.059-0.033,0.091-0.046
							c3.237-1.286,5.195,2.708,6.063,5.156c0.418,1.181,0.959,2.323,1.632,3.387C431.413,345.797,430.454,349.047,431.361,354.248z
							"/>
						<path style="opacity:0.3;fill:#326C92;" d="M429.449,412.963c-3.087,0.085-5.541-0.692-7.479-2.375
							c5.58,0.072,10.618-5.286,12.399-18.377c0.503-3.668,1.273-7.446,2.193-11.166c-0.052,3.002,0.392,6.376,2.447,10.879
							C444.928,404.89,435.995,412.78,429.449,412.963z"/>
						<path style="fill:#E2FBF6;" d="M431.959,439.53c-4.03-60.517-10.443-103.273-10.443-103.273s5.344,42.903,7.864,103.502
							L431.959,439.53z"/>
					</g>
				</g>
				<g>
					<g>
						<path style="fill:#E2FBF6;" d="M458.085,439.197v2.61c0,1.442-1.168,2.61-2.61,2.61h-54.166c-0.998,0-1.866-0.561-2.303-1.384
							c-0.196-0.365-0.307-0.783-0.307-1.227v-2.61c0-1.442,1.168-2.61,2.61-2.61h54.166
							C456.917,436.587,458.085,437.755,458.085,439.197z"/>
						<path style="opacity:0.3;fill:#326C92;" d="M458.085,439.197v2.61c0,1.442-1.168,2.61-2.61,2.61h-54.166
							c-0.998,0-1.866-0.561-2.303-1.384c15.662-0.32,34.222-3.955,45.251-6.448h11.218
							C456.917,436.587,458.085,437.755,458.085,439.197z"/>
					</g>
					<path style="fill:#2475BA;" d="M453.19,444.418v38.614c0,6.578-5.332,11.91-11.91,11.91h-25.778
						c-6.213,0-11.316-4.757-11.864-10.833c-0.033-0.352-0.046-0.711-0.046-1.077v-38.614H453.19z"/>
					<path style="opacity:0.3;fill:#326C92;" d="M403.593,444.418v9.273l13.704-1.282c14.711-1.377,20.582,18.689,7.368,25.299
						c-5.852,2.927-12.794,5.201-21.027,6.401c0.548,6.076,5.651,10.833,11.864,10.833h25.778c6.578,0,11.91-5.332,11.91-11.91
						v-33.981v-3.903v-0.731H403.593z"/>
					<rect x="415.501" y="494.942" style="fill:#2475BA;" width="25.778" height="5.058"/>
					<polygon style="fill:#0C1A3C;" points="441.278,495.921 415.501,497.797 415.501,494.942 441.278,494.942 					"/>
				</g>
			</g>
			<g>
				<g>
					<g>
						<g>
							
								<rect x="203.613" y="313.978" transform="matrix(0.9858 -0.1678 0.1678 0.9858 -52.6391 39.1322)" style="fill:#0C1A3C;" width="3.198" height="34.072"/>
							<path style="fill:#0C1A3C;" d="M204.854,316.633l-4.062,0.691l-0.394-2.312c-0.042-0.247,0.124-0.481,0.371-0.523
								l3.169-0.539c0.247-0.042,0.481,0.124,0.523,0.371L204.854,316.633z"/>
							<path style="fill:#0C1A3C;" d="M203.233,314.07l-1.758,0.299l-0.41-2.409c-0.033-0.193,0.097-0.376,0.29-0.409l1.06-0.181
								c0.193-0.033,0.376,0.097,0.409,0.29L203.233,314.07z"/>
							
								<rect x="199.932" y="315.298" transform="matrix(0.9858 -0.1677 0.1677 0.9858 -50.1545 38.0542)" style="fill:#0C1A3C;" width="0.63" height="1.399"/>
							<path style="fill:#0C1A3C;" d="M201.75,326.707L201.75,326.707c-0.46,0.078-0.897-0.231-0.976-0.692l-1.647-9.678
								c-0.078-0.46,0.231-0.897,0.692-0.976l0,0L201.75,326.707z"/>
						</g>
						<g>
							
								<rect x="207.83" y="314.34" transform="matrix(0.9939 -0.1103 0.1103 0.9939 -35.2774 25.1256)" style="fill:#FFFFFF;" width="3.198" height="34.072"/>
							
								<rect x="208.752" y="314.34" transform="matrix(0.9939 -0.1103 0.1103 0.9939 -35.2859 25.1323)" style="fill:#0C1A3C;" width="1.353" height="34.072"/>
							<polygon style="fill:#0C1A3C;" points="205.962,314.617 209.138,314.265 207.592,311.066 206.764,311.158 							"/>
							<polygon style="fill:#0C1A3C;" points="206.764,311.158 207.592,311.066 207.046,309.938 							"/>
						</g>
						<g>
							<g>
								
									<rect x="218.04" y="313.659" transform="matrix(0.9894 0.1454 -0.1454 0.9894 50.417 -28.4212)" style="fill:#0C1A3C;" width="3.198" height="34.072"/>
								
									<rect x="220.262" y="315.359" transform="matrix(0.9894 0.1454 -0.1454 0.9894 48.242 -28.9049)" style="fill:#FFFFFF;" width="3.198" height="0.43"/>
								
									<rect x="219.979" y="317.287" transform="matrix(0.9894 0.1454 -0.1454 0.9894 48.5087 -28.8379)" style="fill:#FFFFFF;" width="3.198" height="0.431"/>
								
									<rect x="219.696" y="319.215" transform="matrix(0.9894 0.1454 -0.1454 0.9894 48.7967 -28.7816)" style="fill:#FFFFFF;" width="3.198" height="0.431"/>
								<polygon style="fill:#FFFFFF;" points="220.537,313.605 223.699,314.07 223.284,310.624 221.917,310.423 								"/>
							</g>
							<path style="fill:#0C1A3C;" d="M223.166,309.725l-0.127,0.862l-0.869-0.128l0.127-0.862l0.161,0.024l0.115-0.781
								c0.023-0.153,0.165-0.259,0.311-0.238c0.153,0.022,0.259,0.165,0.237,0.318l-0.115,0.781L223.166,309.725z"/>
						</g>
					</g>
					<g>
						<polygon style="fill:#0C1A3C;" points="224.407,324.594 222.561,354.41 201.771,354.41 201.107,343.716 199.926,324.594 
													"/>
						<path style="opacity:0.3;fill:#326C92;" d="M224.407,324.594l-1.845,29.816h-20.79l-0.664-10.694
							c4.266-1.365,8.067-3.867,9.447-8.332c0.168-0.543,0.346-1.073,0.534-1.589C213.113,328.231,218.485,324.594,224.407,324.594
							L224.407,324.594z"/>
					</g>
				</g>
				<g>
					<g>
						<path style="fill:#FDBE2D;" d="M219.883,303.627c0,2.281-0.406,4.583-1.255,6.805l-1.793,4.709
							c-0.192,0.494-0.347,1.004-0.472,1.52c-0.295,1.122-0.443,2.281-0.443,3.447v27.676h-5.166v-27.676
							c0-2.325,0.421-4.635,1.255-6.812l1.793-4.701c0.62-1.631,0.915-3.306,0.915-4.967c0-4.561-2.244-8.974-6.229-11.616h-0.007
							c-2.332-1.55-5.011-2.317-7.698-2.325c-2.583,0-5.166,0.723-7.447,2.162l-8.177,5.166l-2.76-4.369l8.177-5.166
							c0.03-0.022,0.059-0.037,0.089-0.059c3.1-1.934,6.613-2.9,10.118-2.9c1.838,0,3.683,0.266,5.462,0.797
							c1.779,0.539,3.506,1.336,5.1,2.391l1.151,0.768v0.066C217.233,292.217,219.883,297.833,219.883,303.627z"/>
						<path style="fill:#F2972D;" d="M216.362,316.66c-0.295,1.122-0.443,2.281-0.443,3.447v27.676h-5.166v-27.676
							c0-2.325,0.421-4.635,1.255-6.812l1.793-4.701c0.62-1.631,0.915-3.306,0.915-4.967c0-4.561-2.244-8.974-6.229-11.616h-0.007
							c-2.332-1.55-5.011-2.317-7.698-2.325c-2.583,0-5.166,0.723-7.447,2.162l-8.177,5.166l-2.76-4.369l8.177-5.166
							c0.03-0.022,0.059-0.037,0.089-0.059c1.048,1.092,2.768,1.705,6.864,0.768c6.214-1.417,15.971,1.181,18.93,11.196
							C218.311,305.649,216.982,311.531,216.362,316.66z"/>
					</g>
					<g>
						<g>
							<path style="fill:#EA3E51;" d="M191.646,296.948c0,3.432-1.579,6.819-4.568,9.004l-9.587,6.996l-4.827-6.613v-0.007
								l-3.144-4.31l-0.029-0.037l-4.126-5.646l-1.004-1.373l9.594-6.996c3.852-2.812,8.908-2.79,12.672-0.317
								c1.092,0.716,2.066,1.631,2.878,2.745c0.399,0.539,0.738,1.107,1.019,1.69C191.277,293.634,191.646,295.294,191.646,296.948z
								"/>
							<g>
								<path style="fill:#AF142B;" d="M191.646,296.948c0,3.432-1.579,6.819-4.568,9.004l-9.587,6.996l-4.827-6.613v-0.007
									c0,0,13.624-6.738,17.86-14.244C191.277,293.634,191.646,295.294,191.646,296.948z"/>
							</g>
							<g>
								<polygon style="fill:#FDBE2D;" points="177.49,312.948 175.225,319.014 170.132,312.033 157.896,295.265 164.361,294.962 
									165.365,296.335 169.49,301.981 169.52,302.018 172.664,306.328 172.664,306.335 								"/>
							</g>
							<g>
								<polygon style="fill:#F2972D;" points="177.49,312.948 175.225,319.014 170.132,312.033 172.664,306.335 								"/>
							</g>
						</g>
					</g>
					<g>
						<path style="fill:#F2972D;" d="M231.447,351.797v2.613h-36.23v-2.694c0.044-3.387,2.805-6.118,6.2-6.118h23.831
							C228.672,345.598,231.447,348.373,231.447,351.797z"/>
						<path style="fill:#D37518;" d="M231.447,351.797v2.613h-36.23v-2.694c9.152-0.804,22.96-2.561,29.086-6.118h0.945
							C228.672,345.598,231.447,348.373,231.447,351.797z"/>
					</g>
				</g>
				<g>
					<g>
						<path style="fill:#2475BA;" d="M63.37,499.129V500H5v-0.871c0-0.509,0.044-1.011,0.148-1.491
							c0.561-3.063,2.856-5.565,5.948-6.377c2.347-0.62,5.166-1.505,8.074-2.782c3.483-1.506,7.093-3.557,10.185-6.318h9.661
							c1.151,1.026,2.369,1.956,3.631,2.79c4.967,3.314,10.517,5.233,14.628,6.31c0.679,0.177,1.321,0.436,1.911,0.768
							C61.717,493.432,63.37,496.118,63.37,499.129z"/>
						<path style="fill:#0C1A3C;" d="M42.647,484.952l-23.477,3.528c2.643-2.063,6.643-4.47,10.185-6.318h9.661
							C40.167,483.188,41.384,484.118,42.647,484.952z"/>
						<path style="opacity:0.3;fill:#326C92;" d="M63.37,499.129V500H5v-0.871c0-0.509,0.044-1.011,0.148-1.491l54.038-5.609
							C61.717,493.432,63.37,496.118,63.37,499.129z"/>
					</g>
					<g>
						<path style="fill:#EA3E51;" d="M61.4,407.747c0,2.14-0.871,4.074-2.273,5.476c-1.402,1.402-3.336,2.273-5.476,2.273H14.72
							c-4.281,0-7.749-3.469-7.749-7.749c0-2.14,0.863-4.074,2.266-5.476c0.398-0.398,0.834-0.745,1.306-1.048
							c1.203-0.775,2.642-1.225,4.177-1.225h38.931C57.931,399.998,61.4,403.466,61.4,407.747z"/>
						<path style="opacity:0.3;fill:#326C92;" d="M61.4,407.747c0,2.14-0.871,4.074-2.273,5.476
							c-1.402,1.402-3.336,2.273-5.476,2.273H39.953c-10.524-4.163-20.517-8.096-22.096-8.672c-2.096-0.775-5.107-3.513-7.314-5.602
							c1.203-0.775,2.642-1.225,4.177-1.225h38.931C57.931,399.998,61.4,403.466,61.4,407.747z"/>
					</g>
					<g>
						<g>
							<path style="fill:#2475BA;" d="M52.728,415.496v1.757c0,2.391-1.941,4.332-4.34,4.332H19.982
								c-1.432,0-2.701-0.694-3.483-1.757c-0.539-0.716-0.856-1.609-0.856-2.576v-1.757H52.728z"/>
							<path style="opacity:0.3;fill:#326C92;" d="M52.728,415.496v1.387l-36.23,2.945c-0.539-0.716-0.856-1.609-0.856-2.576v-1.757
								H52.728z"/>
						</g>
					</g>
					<g>
						<rect x="29.355" y="421.585" style="fill:#EA3E51;" width="9.661" height="57.47"/>
						<polygon style="fill:#0C1A3C;" points="39.563,421.585 39.563,426.249 28.807,427.969 28.807,421.585 						"/>
					</g>
					<path style="fill:#FDBE2D;" d="M40.597,479.059H27.774c-1.367,0-2.475,1.108-2.475,2.475l0,0c0,1.367,1.108,2.475,2.475,2.475
						h12.823c1.367,0,2.475-1.108,2.475-2.475l0,0C43.072,480.167,41.964,479.059,40.597,479.059z"/>
				</g>
				<g>
					<g>
						<g>
							<polygon style="fill:#FFFFFF;stroke:#231F20;stroke-width:0.738;stroke-miterlimit:10;" points="118.597,484.811 
								113.054,486.45 110.478,487.21 104.943,471.158 115.091,467.468 116.05,472.199 							"/>
							<path style="fill:#FFFFFF;stroke:#231F20;stroke-width:0.738;stroke-miterlimit:10;" d="M111.216,473.985
								c0,0,0.952,6.502,1.838,12.465l-2.576,0.76l-5.535-16.052l10.148-3.69l0.96,4.731L111.216,473.985z"/>
						</g>
						<g>
							<path style="fill:#FFFFFF;stroke:#231F20;stroke-width:0.738;stroke-miterlimit:10;" d="M142.996,500H106.19v-14.672
								l15.218-4.701c4.288,7.056,20.48,13.425,20.48,13.425l0.605,3.24L142.996,500z"/>
							<path style="fill:#FFFFFF;stroke:#231F20;stroke-width:0.738;stroke-miterlimit:10;" d="M142.996,500H106.19v-13.115
								l5.07-0.797c2.997-0.472,6.059,0.62,7.978,2.967c2.31,2.819,8.236,6.406,23.255,8.236L142.996,500z"/>
						</g>
						<g>
							<path style="fill:#2475BA;" d="M117.386,469.188l-22.037,5.602l-17.218-48.223c0,0-59.78-22.266-60.643-23.86
								c-0.863-1.602-4.923-13.284-4.923-13.284s7.011-5.166,10.214-6.399c3.196-1.232,30.503-4.185,30.503-4.185
								s2.9,1.801,7.343,4.568c14.34,8.915,44.739,27.838,45.3,28.399c0.192,0.192,1.07,4.214,2.258,10.044
								C111.541,438.301,117.386,469.188,117.386,469.188z"/>
							<g>
								<g>
									<path style="opacity:0.3;fill:#326C92;" d="M117.386,469.188l-22.037,5.602l-17.218-48.223
										c0,0-56.451-21.026-60.429-23.676c-0.118-0.081-0.192-0.14-0.214-0.185c-0.863-1.602-4.923-13.284-4.923-13.284
										s7.011-5.166,10.214-6.399c3.196-1.232,30.503-4.185,30.503-4.185s2.251,1.402,5.83,3.631
										c0.48,0.295,0.989,0.605,1.513,0.937c-7.262,0.745-16.967,1.956-19.89,3.306c-0.57,0.263-1.116,0.529-1.636,0.792
										c-1.442,0.731-0.742,2.914,0.854,2.658c5.143-0.826,11.299-1.789,12.037-1.789c0.566,0-0.641,1.064-2.175,2.259
										c-1.248,0.972-0.485,2.974,1.094,2.87c1.286-0.084,2.425-0.148,2.926-0.148c1.476,0,26.753,19.004,31.366,23.432
										c2.863,2.745,14.539,4.288,22.982,5.063C111.541,438.301,117.386,469.188,117.386,469.188z"/>
									<path style="opacity:0.3;fill:#326C92;" d="M59.112,382.47c-4.229,0.214-17.594,1.114-23.049,4
										c-4.502,2.369-13.329,11.181-18.362,16.421c-0.118-0.081-0.192-0.14-0.214-0.185c-0.863-1.602-4.923-13.284-4.923-13.284
										s7.011-5.166,10.214-6.399c3.196-1.232,30.503-4.185,30.503-4.185S55.533,380.241,59.112,382.47z"/>
								</g>
							</g>
						</g>
					</g>
					<g>
						<g>
							<polygon style="fill:#0C1A3C;" points="58.217,307.837 59.862,308.114 56.964,315.863 54.066,311.066 							"/>
							<g>
								<polygon style="fill:#0C1A3C;" points="59.865,308.114 58.868,308.859 53.341,312.97 52.787,311.309 54.034,302.04 
									54.079,301.715 								"/>
								<polygon style="fill:#268EDC;" points="59.865,308.114 58.868,308.859 54.034,302.04 54.079,301.715 								"/>
							</g>
						</g>
						<g>
							<path style="fill:#FDBE2D;" d="M59.134,370.137c0.288,6.303,0.546,11.535,0.546,11.535s-23.248,0.369-27.558,1.963
								c-3.69,1.373-17.809,8.908-21.735,11.019c-0.517-3.306-3.159-20.842-2.494-31.004c0.111-1.631,0.288-3.483,0.517-5.447
								c0.317-2.65,0.716-5.513,1.151-8.354c0.31-2,0.635-3.993,0.952-5.889c0.015-0.052,0.03-0.096,0.044-0.14
								c0.797-2.627,1.653-5.27,2.531-7.875c0.199-0.605,0.406-1.21,0.613-1.808c1.092-3.218,2.214-6.347,3.299-9.262
								c0.177-0.487,0.362-0.967,0.539-1.439c0.133-0.347,0.266-0.694,0.391-1.033c0.103-0.273,0.214-0.546,0.317-0.819
								c0.103-0.273,0.207-0.546,0.31-0.805c0.184-0.48,0.369-0.952,0.554-1.409c0.015-0.052,0.037-0.103,0.059-0.148
								c0.288-0.723,0.561-1.417,0.834-2.089c0.015-0.037,0.03-0.081,0.052-0.118c0.369-0.908,0.731-1.771,1.07-2.576
								c0.93-2.177,1.742-3.941,2.384-5.137c0.096-0.192,0.192-0.362,0.281-0.517c0.111-0.199,0.221-0.376,0.317-0.531
								c0.096-0.148,0.184-0.28,0.266-0.384c3.446-4.428,11.196-8.369,11.196-8.369s0.325,0.022,1.284,0.369
								c1.402,0.509,4.14,1.712,9.174,4.554c0,0,0.827-0.103,4.295,2.45c0.31,0.229,0.635,0.472,0.989,0.745
								c1.644,1.267,3.252,3.125,4.612,4.938c2.443,3.258,3.715,7.238,3.586,11.308c-0.157,4.958-0.399,12.256-0.626,17.666
								c-0.066,1.542-0.126,2.93-0.184,4.067c-0.096,1.771-0.185,2.93-0.251,3.107c-0.199,0.531,0.177,10.214,0.576,18.945
								C59.06,368.492,59.097,369.326,59.134,370.137z"/>
							<path style="fill:#F2972D;" d="M59.68,381.673c0,0-23.248,0.369-27.558,1.963c-3.69,1.373-17.809,8.908-21.735,11.019
								c-0.517-3.306-3.159-20.842-2.494-31.004c0.111-1.631,0.288-3.483,0.517-5.447c3.771,3.018,9.742,3.284,17.012,3.786
								c15.152,1.033-1.196,4.797-3.439,5.299c2.369-0.421,21.262-3.542,37.152,2.849C59.422,376.44,59.68,381.673,59.68,381.673z"
								/>
							<path style="fill:#D37518;" d="M59.023,367.65c-10.613,0.007-15.742-5.439-22.347-16.915
								c-7.749-13.469-11.255-24.17-11.255-24.17l8.303-10.701c0,0,14.805,15.698,24.975,29.735
								c-0.096,1.771-0.185,2.93-0.251,3.107C58.248,349.237,58.625,358.919,59.023,367.65z"/>
							<path style="fill:#FFFFFF;" d="M56.122,312.825c2.35,3.182,3.513,7.082,3.387,11.035c-0.157,4.958-0.4,12.259-0.626,17.671
								c-0.229-10.65-0.421-21.085-0.679-21.735c-0.494-1.225-6.642-9.838-6.642-9.838s-0.517-1.24-1.24-3.085
								c0.31,0.229,0.635,0.472,0.989,0.745C53.036,308.949,54.721,310.928,56.122,312.825z"/>
							<path style="fill:#FFFFFF;" d="M36.853,299.87c-2.199,1.299-8.679,5.343-11.336,9.439
								c-1.97,3.055-10.007,24.406-15.956,40.54c0.31-2,0.635-3.993,0.952-5.889c0.007-0.015,0.007-0.022,0.007-0.037
								c0.007-0.037,0.022-0.074,0.037-0.103c0.797-2.627,1.653-5.27,2.531-7.875c0.199-0.605,0.406-1.21,0.613-1.808
								c1.092-3.218,2.214-6.347,3.299-9.262c0.177-0.487,0.362-0.967,0.539-1.439c0.133-0.347,0.266-0.694,0.391-1.033
								c0.103-0.273,0.214-0.546,0.317-0.819c0.103-0.273,0.207-0.546,0.31-0.805c0.184-0.48,0.369-0.952,0.554-1.409
								c0.015-0.052,0.037-0.103,0.059-0.148c0.28-0.723,0.561-1.417,0.834-2.089c0.015-0.037,0.03-0.081,0.052-0.118
								c0.369-0.908,0.723-1.771,1.07-2.576c0.93-2.177,1.742-3.941,2.384-5.137c0.096-0.192,0.192-0.362,0.281-0.517
								c0.111-0.199,0.221-0.376,0.317-0.531c0.096-0.155,0.184-0.28,0.266-0.384c3.446-4.428,11.196-8.369,11.196-8.369
								S35.894,299.523,36.853,299.87z"/>
						</g>
						<g>
							<path style="fill:#0C1A3C;" d="M42.027,272.689l-1.107,1.968c0,0,8.979,3.998,20.911,3.075
								c11.931-0.923,19.742-6.581,19.742-6.581S66.443,260.327,42.027,272.689z"/>
							<g>
								<g>
									<polygon style="fill:#92415F;" points="61.341,283.7 56.839,296.615 53.407,306.453 41.842,295.014 48.543,283.944 
										50.58,280.541 51.562,278.903 									"/>
									<path style="fill:#1D0E35;" d="M52.579,281.958l-0.981,1.638c-0.125,2.835,0.148,6.611,1.767,10.179
										c0.911,2.008,3.807,1.884,4.533-0.198l2.682-7.694L52.579,281.958z"/>
								</g>
								<g>
									<path style="fill:#92415F;" d="M72.78,275.825c-0.878,4.989-6.871,15.196-11.262,16.214
										c-0.207,0.052-0.413,0.074-0.612,0.081c-1.255,0.037-2.672-0.435-4.044-1.306c-3.454-2.177-6.62-6.864-6.222-12.281
										c0.553-7.565,3.056-11.971,11.004-12.797c2.251-0.236,4.081-0.155,5.572,0.177c2.509,0.546,4.037,1.779,4.886,3.343
										C73.142,271.161,73.179,273.567,72.78,275.825z"/>
									<path style="fill:#BF5E85;" d="M72.78,275.825c-0.878,4.989-6.871,15.196-11.262,16.214
										c7.823-7.063,9.757-18.428,9.757-18.428c0.266-1.72,0.546-3.159,0.827-4.354C73.142,271.161,73.179,273.567,72.78,275.825z
										"/>
									<path style="fill:#511D32;" d="M67.328,265.914c-3.535,5.225-10.258,16.259-10.354,24.901
										c-3.454-2.177-6.62-6.864-6.222-12.281c0.554-7.565,3.056-11.971,11.004-12.797
										C64.007,265.5,65.838,265.582,67.328,265.914z"/>
								</g>
								<g>
									<path style="fill:#EA3E51;" d="M74.81,276.622c-1.358,4.185-3.424,3.424-3.424,3.424c-1.815-5.926-6.664-8.037-6.664-8.037
										c-1.97,4.428-6.332,4.244-6.332,4.244l-0.863,2.768l-3.446-1.166c0,0-5.351,5.963-5.535,6.089
										c-0.148,0.103-1.358-4.974-1.1-9.978c0.051-1.144,0.184-2.288,0.428-3.365c1.292-5.786,7.439-5.661,7.439-5.661
										s4.118-3.506,11.07-1.66c3.904,1.04,6.509,3.801,7.801,6.768C75.193,272.357,75.4,274.792,74.81,276.622z"/>
									<path style="opacity:0.3;fill:#326C92;" d="M74.182,270.047c-4.48-0.384-18.495-1.107-26.738,3.919
										c0.051-1.144,0.184-2.288,0.428-3.365c1.292-5.786,7.439-5.661,7.439-5.661s4.118-3.506,11.07-1.66
										C70.286,264.319,72.891,267.08,74.182,270.047z"/>
								</g>
								<path style="fill:#511D32;" d="M55.4,276.907c0.661-1.872-0.389-4.023-2.333-4.419c-0.762-0.155-1.606-0.033-2.463,0.631
									c-2.857,2.214-1.75,8.487,2.986,8.918L55.4,276.907z"/>
							</g>
							<g>
								<g>
									<path style="fill:#FDBE2D;" d="M75.607,267.951c0,0-0.517-0.111-1.483-0.236c-1.801-0.236-5.174-0.553-9.742-0.399
										c-4.613,0.155-10.428,0.797-17.063,2.48l1.734-9.838l0.229-1.292c0,0,1.565-1.011,4.642-1.978
										c2.177-0.679,5.1-1.336,8.768-1.587c8.856-0.62,11.934,3.439,11.934,3.439L75.607,267.951z"/>
									<path style="fill:#FFFFFF;" d="M75.607,267.951c0,0-0.517-0.111-1.483-0.236l0,0c-0.729-6.496-6.202-11.478-12.739-11.468
										c-2.822,0.004-5.521,0.242-7.461,0.442c2.177-0.679,5.1-1.336,8.768-1.587c8.856-0.62,11.934,3.439,11.934,3.439
										L75.607,267.951z"/>
									<path style="fill:#F2972D;" d="M64.381,267.316c-4.613,0.155-10.428,0.797-17.063,2.48l1.734-9.838
										c2.31-0.642,5.86-1.424,9.21-1.351C62.337,258.696,61.68,262.866,64.381,267.316z"/>
								</g>
								<path style="fill:#FDBE2D;" d="M81.142,268.568c0,0-6.335-3.936-20.357-3.137c-14.022,0.8-20.296,6.642-20.296,6.642
									l0.431,2.583c0,0,6.273-5.843,20.296-6.642c14.023-0.799,20.357,3.137,20.357,3.137L81.142,268.568z"/>
							</g>
						</g>
						<g>
							<polygon style="fill:#AF142B;" points="53.589,304.055 53.343,312.973 47.5,308.975 							"/>
							<g>
								<polygon style="fill:#EA3E51;" points="53.591,304.055 48.359,311.309 34.956,299.198 40.676,292.984 44.204,296.003 
																	"/>
								<polygon style="fill:#FFFFFF;" points="48.359,311.309 51.621,303.966 44.204,296.003 53.591,304.055 								"/>
							</g>
						</g>
					</g>
					<g>
						<g>
							
								<rect x="115.041" y="324.223" transform="matrix(0.9337 -0.3581 0.3581 0.9337 -113.2956 64.0988)" style="fill:#FFFFFF;" width="2.768" height="27.471"/>
							<path style="opacity:0.3;fill:#326C92;" d="M122.242,349.262c-0.845,0.324-1.794-0.098-2.118-0.944l-8.856-23.093
								l-1.054,0.404l9.837,25.649l2.584-0.991L122.242,349.262L122.242,349.262z"/>
							<path style="fill:#0C1A3C;" d="M122.633,350.289l0.104,3.881c0.002,0.091-0.111,0.135-0.17,0.065l-2.518-2.955
								L122.633,350.289z"/>
							
								<rect x="110.841" y="326.002" transform="matrix(0.9337 -0.3581 0.3581 0.9337 -109.6048 62.0026)" style="fill:#0C1A3C;" width="3.529" height="1.868"/>
							<path style="fill:#0C1A3C;" d="M118.348,334.661l-0.53,0.215c-0.21-0.088-0.375-0.258-0.457-0.471l-3.442-8.974l0.775-0.297
								L118.348,334.661z"/>
							<path style="fill:#0C1A3C;" d="M110.243,321.839L110.243,321.839c-0.44,0.169-0.66,0.662-0.491,1.102l0.958,2.498
								l1.594-0.611l-0.958-2.498C111.177,321.89,110.683,321.67,110.243,321.839z"/>
						</g>
						<g>
							<path style="fill:#92415F;" d="M124.781,343.17c0.015,0.111-0.044,0.34-0.155,0.605c-0.214,0.539-0.605,1.24-0.908,1.424
								c-0.465,0.273-4.568,0.413-4.568,0.413s-0.14,2.03-0.694,2.635c-0.553,0.598-1.889,1.196-1.889,1.196s0.185,1.247-0.096,2.03
								c-0.273,0.782-2.074,1.801-2.214,1.845c-0.133,0.044-0.089,1.151-0.598,1.616c-0.509,0.458-3.225,0.782-3.506,0.871
								c-0.273,0.096-10.288-2.162-12.591-3.963c-2.303-1.801-1.107-9.69-1.107-9.69s1.424-0.657,3.395-1.565
								c0.856-0.391,1.808-0.827,2.797-1.277c3.933-1.786,8.354-3.786,8.753-3.889c0.738-0.184,2.768,0.458,2.768,0.458l0.317,0.753
								l1.203,2.849l0.022,0.007c0.465,0.081,7.882,1.476,8.332,1.653c0.318,0.125,0.524,0.9,0.635,1.469
								C124.73,342.86,124.766,343.074,124.781,343.17z"/>
							<path style="fill:#FFFFFF;" d="M111.401,335.421c-0.399,0.103-4.819,2.103-8.753,3.889
								c3.107-0.952,11.521-3.432,11.521-3.432S112.139,335.236,111.401,335.421z"/>
							<path style="fill:#511D32;" d="M124.626,343.775c-0.214,0.539-0.605,1.24-0.908,1.424c-0.465,0.273-4.568,0.413-4.568,0.413
								s-0.14,2.03-0.694,2.635c-0.553,0.598-1.889,1.196-1.889,1.196s0.185,1.247-0.096,2.03c-0.273,0.782-2.074,1.801-2.214,1.845
								c-0.133,0.044-0.089,1.151-0.598,1.616c-0.509,0.458-3.225,0.782-3.506,0.871c-0.273,0.096-10.288-2.162-12.591-3.963
								c-2.303-1.801-1.107-9.69-1.107-9.69s1.424-0.657,3.395-1.565c1.033,2.428,3.579,8.34,4.354,9.41
								c0.982,1.35,13.469-6.332,13.963-6.399C118.427,343.569,121.645,343.672,124.626,343.775z"/>
						</g>
						<g>
							<path style="fill:#FDBE2D;" d="M100.146,354.425c0,0-36.532,10.332-44.282,7.565c-7.749-2.768-30.443-35.425-30.443-35.425
								c0-5.328,1.535-9.934,4.133-13.048c1.631-1.963,3.668-3.336,6.015-3.926c6.768-1.72,11.439,1.719,11.439,1.719L61.4,337.14
								c0,0,3.565-1.107,6.517-0.856c2.952,0.244,10.583,1.72,13.166,1.72c2.583,0,15.927-0.554,15.927-0.554l0.251,1.358
								l1.771,9.572L100.146,354.425z"/>
							<path style="fill:#FFFFFF;" d="M97.26,338.808c-3.166,0.236-9.963,0.731-12.059,0.731c-2.768,0-15.742-1.719-17.772-1.719
								c-2.029,0-11.137,2.458-11.38,2.583c0.229-0.185,3.816-2.583,3.816-2.583s-12.672-23.432-14.613-25.558
								c-1.934-2.118-10.731-2.937-15.698,1.255c1.631-1.963,3.668-3.336,6.015-3.926c6.768-1.72,11.439,1.719,11.439,1.719
								L61.4,337.14c0,0,3.565-1.107,6.517-0.856c2.952,0.244,10.583,1.72,13.166,1.72c2.583,0,15.927-0.554,15.927-0.554
								L97.26,338.808z"/>
							<path style="fill:#F2972D;" d="M99.032,348.38c-2.374,0.391-4.903,0.808-7.488,1.228c-2.563,0.417-4.93-1.427-5.192-4.011
								c-0.128-1.267-0.156-2.375-0.133-3.286c0.01-0.389-0.553-0.467-0.646-0.089c-0.494,2.001-0.893,4.959-0.339,8.399
								c-11.186,1.768-21.927,3.291-24.388,2.88c-4.959-0.827-26.392-21.38-31.292-39.986c-2.598,3.115-4.133,7.72-4.133,13.048
								c0,0,22.694,32.657,30.443,35.425s44.282-7.565,44.282-7.565L99.032,348.38z"/>
							<path style="fill:#FFFFFF;" d="M91.566,342.293c0,0.688-0.557,1.246-1.245,1.246c-0.688,0-1.245-0.558-1.245-1.246
								c0-0.688,0.558-1.245,1.245-1.245C91.009,341.048,91.566,341.606,91.566,342.293z"/>
						</g>
					</g>
				</g>
				<g>
					<g>
						<polygon style="fill:#EA3E51;" points="223.27,358.432 223.27,500 70.994,500 70.994,370.233 201.381,358.432 						"/>
						<g>
							<g>
								<path style="opacity:0.3;fill:#326C92;" d="M172.216,404.169c-1.004-14.367-3.615-28.643-7.977-42.374l-1.833,0.166
									c6.195,19.371,8.857,39.914,8.399,60.18c-0.357,15.785-2.562,31.491-6.257,46.834c-1.779,7.387-3.899,14.691-6.326,21.891
									c-0.951,2.818-1.855,5.999-2.953,9.134h1.649C168.408,469.589,174.488,436.687,172.216,404.169z"/>
								<path style="opacity:0.3;fill:#326C92;" d="M110.448,435.985c0.459-15.314,6.968-28.338,12.466-42.297
									c2.642-6.709,4.633-13.528,5.596-20.687c0.36-2.674,0.606-5.358,0.796-8.046l-1.84,0.167
									c-0.323,4.519-0.816,9.02-1.747,13.464c-1.688,8.058-4.928,15.639-8.124,23.189c-2.9,6.852-5.801,13.762-7.419,21.051
									c-1.772,7.982-1.817,16.195-1.301,24.319c0.554,8.715,1.562,17.412,2.879,26.044c1.279,8.382,3.232,16.641,4.528,25.015
									c0.093,0.597,0.179,1.196,0.262,1.796h1.842c-0.684-5.082-1.796-10.112-2.765-15.138
									C112.549,468.943,109.96,452.246,110.448,435.985z"/>
								<path style="opacity:0.3;fill:#326C92;" d="M128.725,483.115c-2.435-15.534-3.476-31.606-0.142-47.092
									c3.213-14.925,11.205-28.243,16.232-42.569c0.897-2.557,2.054-10.23,5.586-10.002c4.47,0.289,3.671,9.86,3.723,13.025
									c0.13,7.984-0.523,15.958-1.38,23.889c-1.74,16.112-3.801,32.194-5.718,48.286c-0.281,2.356-0.763,9.306-5.083,6.502
									c-2.743-1.78-2.09-9.893-2.191-12.897c-0.265-7.87,0.22-15.774,1.457-23.551c1.181-7.423,3.059-14.694,5.519-21.794
									c0.387-1.116-1.382-1.595-1.765-0.487c-5.395,15.573-7.832,32.086-6.92,48.557c0.217,3.93-0.584,11.796,4.984,12.392
									c4.224,0.452,5.177-3.237,5.573-6.561c2.117-17.77,4.491-35.532,6.277-53.338c0.88-8.775,1.578-17.745,0.841-26.557
									c-0.321-3.838-0.849-10.053-6.257-9.236c-1.598,0.241-2.754,1.216-3.506,2.593c-1.82,3.331-2.529,7.731-3.845,11.309
									c-3.047,8.288-6.957,16.189-10.315,24.345c-6.304,15.311-7.977,31.464-6.724,47.893c0.611,8.004,1.816,15.956,3.276,23.846
									c0.491,2.652,0.887,5.498,1.413,8.331h2.015C130.556,494.415,129.606,488.739,128.725,483.115z"/>
								<path style="opacity:0.3;fill:#326C92;" d="M91.262,481.996c-2.306-7.921-5.395-15.568-7.177-23.645
									c-3.679-16.677-3.268-34.238,1.177-50.726c2.127-7.889,5.473-15.335,8.036-23.075c1.811-5.469,2.907-10.997,3.328-16.638
									l-2.053,0.186c-0.379,5.521-1.373,11.04-3.252,16.589c-2.33,6.883-5.268,13.547-7.291,20.536
									c-1.989,6.872-3.278,13.945-3.878,21.074c-1.217,14.457,0.541,29,4.973,42.801c2.243,6.983,4.998,13.884,6.232,21.146
									c0.549,3.228,0.599,6.495,0.674,9.757h1.823C93.535,493.89,93.03,488.067,91.262,481.996z"/>
								<path style="opacity:0.3;fill:#326C92;" d="M104.575,402.269c-1.706,6.346-4.194,12.438-6.124,18.713
									c-7.143,23.235-5.212,48.629,4.881,70.684c0.49,1.07,2.068,0.141,1.581-0.924c-10.812-23.623-11.426-49.989-3.001-74.416
									c4.192-12.153,7.264-24.084,8.171-36.952c0.299-4.236,0.415-8.477,0.43-12.719l-1.82,0.165
									c-0.019,4.648-0.174,9.295-0.543,13.934C107.573,388.011,106.466,395.234,104.575,402.269z"/>
								<path style="opacity:0.3;fill:#326C92;" d="M70.994,469.998v6.858c0.567,1.914,1.108,3.835,1.566,5.779
									c1.348,5.721,2.122,11.525,2.57,17.364h1.826c-0.28-3.676-0.686-7.342-1.277-10.99
									C74.627,482.512,72.701,476.276,70.994,469.998z"/>
								<path style="opacity:0.3;fill:#326C92;" d="M79.087,379.187c0.556-3.219,0.885-6.502,0.915-9.771l-1.708,0.155
									c-0.261,10.618-4.105,21.582-7.3,32.106v6.578C73.596,398.537,77.371,389.126,79.087,379.187z"/>
								<path style="opacity:0.3;fill:#326C92;" d="M187.287,401.395c-0.629-13.727-4.11-27.451-5.381-41.198l-1.652,0.149
									c0.744,7.001,2.032,13.987,3.093,20.776c3.71,23.726,1.915,46.765-2.144,70.306c-2.807,16.276-6.065,32.47-9.735,48.572
									h1.879c3.036-13.346,5.79-26.756,8.232-40.226C185.083,440.451,188.19,421.102,187.287,401.395z"/>
								<path style="opacity:0.3;fill:#326C92;" d="M218.701,444.443c1.439-3.068,2.98-6.098,4.572-9.11v-3.695
									c-4.546,8.697-8.927,17.47-12.544,26.675c-5.256,13.377-9.195,27.382-10.7,41.686h1.826
									C203.893,480.638,210.473,461.983,218.701,444.443z"/>
								<path style="opacity:0.3;fill:#326C92;" d="M211.477,417.198c-4.43,11.916-8.34,23.993-11.444,36.325
									c-1.593,6.329-2.993,12.706-4.197,19.12c-0.559,2.978-1.076,5.964-1.551,8.956c-0.444,2.794-0.407,6.277-1.464,8.902
									c-0.287,0.713-0.719,6.28-3.708,0.724c-0.19-0.353,0.117-1.705,0.148-2.116c0.124-1.645,0.269-3.289,0.436-4.93
									c0.373-3.676,0.849-7.341,1.399-10.995c0.989-6.562,2.214-13.086,3.515-19.592c2.512-12.555,5.352-25.055,7.357-37.705
									c3.01-18.981,4.178-38.72,0.023-57.453h-0.614l-1.2,0.108c4.904,21.729,2.415,44.857-1.681,66.634
									c-2.764,14.693-6.209,29.256-8.614,44.017c-1.139,6.99-2.405,14.234-2.553,21.326c-0.054,2.615,1.609,5.244,4.645,4.303
									c1.303-0.404,1.913-1.382,2.354-2.59c1.125-3.085,1.209-6.919,1.722-10.148c1.171-7.366,2.593-14.692,4.271-21.959
									c3.335-14.442,7.759-28.555,12.921-42.442c3.528-9.491,7.243-18.98,10.031-28.727v-7.254
									C220.44,393.868,215.82,405.518,211.477,417.198z"/>
							</g>
						</g>
					</g>
					<polygon style="opacity:0.3;fill:#326C92;" points="223.27,358.432 223.27,368.499 200.643,369.982 70.994,395.149 
						70.994,370.233 201.381,358.432 					"/>
					<path style="opacity:0.3;fill:#326C92;" d="M223.27,399.71V500H70.994v-45.61C170.081,455.143,208.436,423.629,223.27,399.71z"
						/>
					<g>
						<g>
							<polygon style="fill:#FFFFFF;" points="173.579,349.458 173.579,357.51 101.496,363.82 101.496,355.768 161.379,350.528 
															"/>
							<path style="opacity:0.3;fill:#326C92;" d="M173.579,357.51l-72.083,6.31v-1.926c15.642-1.671,29.787-3.077,36.419-5.26
								c3.68-1.211,7.386-2.329,11.157-3.215l12.157-1.087l8.902-0.665C171.66,351.533,173.579,357.51,173.579,357.51z"/>
						</g>
						<path style="fill:#EA3E51;" d="M194.773,354.409c-3.393,0-129.12,11.884-129.12,11.884c-2.071,0.181-3.661,1.916-3.661,3.995
							c0,2.353,2.016,4.201,4.36,3.995l127.088-11.66c1.184-0.109,2.373-0.163,3.562-0.163h35.868c2.223,0,4.026-1.802,4.026-4.026
							v0c0-2.223-1.803-4.026-4.026-4.026H194.773z"/>
					</g>
				</g>
			</g>
		</g>
	</g>
</g>
</svg>
